<svg xmlns="http://www.w3.org/2000/svg" version="1.1" xmlns:xlink="http://www.w3.org/1999/xlink" xmlns:svgjs="http://svgjs.dev/svgjs" width="1000" height="1125" viewBox="0 0 1000 1125"><g transform="matrix(1,0,0,1,1.7053025658242404e-13,0)"><svg viewBox="0 0 320 360" data-background-color="#ffffff" preserveAspectRatio="xMidYMid meet" height="1125" width="1000" xmlns="http://www.w3.org/2000/svg" xmlns:xlink="http://www.w3.org/1999/xlink"><g id="tight-bounds" transform="matrix(1,0,0,1,0,0)"><svg viewBox="0 0 320 360" height="360" width="320"><g><svg></svg></g><g><svg viewBox="0 0 320 360" height="360" width="320"><g><path xmlns="http://www.w3.org/2000/svg" d="M20.961 227.22l3.726 4.658-1.863-6.056c-0.466-2.795-3.726 0.466-1.863 1.398M25.153 224.425c1.397 2.329 2.795 4.658 2.795 6.987 0 3.261 2.795 4.658 5.123 5.589-3.261-3.726-5.124-13.974-7.918-12.576M204.017 26.929c7.918 0 15.371-0.932 23.756 0.931 20.495 5.124 37.729 15.371 49.374 29.811l32.606 52.169c1.397 13.042 4.192 27.482 3.726 43.319 3.261 0 2.795-4.658 6.521-5.59-3.726 9.316-5.59 20.961-6.521 34.469-2.329-7.453 0-18.632 0.466-24.687-3.261 5.124-5.124 1.397-5.124-0.932 0.466-3.726-1.397-3.261-2.795-4.658-5.124-4.658-8.384-9.782-12.11-17.7 2.329-6.055 2.795-14.905-4.658-19.563-2.329-1.397-5.124-3.726-6.521-7.453-1.863-5.124-5.124-11.179-4.193-19.097 0.466-2.329-6.987 5.124-11.179 1.863-18.166-12.576-36.332-27.016-58.224-39.127-11.645 0-20.029-4.192-24.221-9.316-3.726-4.658-0.932-10.713 4.658-11.179 3.261 0 6.987-0.932 9.782 0.932 0.466-1.863 2.329-4.192 4.657-4.192M157.904 16.215l0.932 0.466c4.658 0.932 6.987 7.453 12.11 5.124 0 3.261 0.466 6.521-0.466 8.85-1.397 3.726-5.59 3.726-8.85 3.726-31.208-1.863-49.374 11.179-68.471 22.358-5.124 3.261-10.713 5.59-14.906 9.782-20.029 18.632-41.921 35.866-47.045 70.335l-4.192 38.195c-0.466 4.192-5.124 8.384-4.192 13.508l3.26 22.824c-3.261-3.261-5.124 0.932-4.192 2.795 0.466 1.397 2.329 6.055 5.124 1.863 3.726 6.987 7.453 20.495 12.576 26.55 15.837 18.632 36.332 35.4 53.101 52.169 4.192-0.932 7.453-0.932 8.384-3.727 1.397 2.795-1.397 5.59-3.726 6.056 7.453 4.658 15.837 8.85 27.016 9.781 14.44 0.932 27.948 3.261 40.524 6.522 6.521-1.863 13.042-2.795 20.029-3.261 2.329 0 3.726-3.726 6.521-4.658l0.466-4.658c2.795 4.192 2.329-1.397 0.466-4.192 3.261 2.795 4.192 5.124 5.589 6.987 0-1.397 3.726-6.521 3.727-0.466l0.931-6.055c1.397-0.932 1.863 5.124 3.261 0.931 1.397-4.192 4.192-0.932 6.987-2.329-0.932 1.863-0.466 5.59 2.794 3.261l3.727-3.261c2.329 5.59 6.055 3.261 7.918 2.329 20.495-13.042 40.99-28.413 60.553-43.784l-0.466 6.055 2.329-7.453c2.329 2.329 4.192 0.466 5.124-0.931 2.795-4.658 6.521-9.316 12.577-13.508-7.453 20.029-16.303 35.866-27.482 48.908l-4.658 5.59c0 3.261-0.932 7.453-4.658 7.918-1.863 0.466-5.59-0.932-8.384 1.863-1.397 1.863 3.261 5.59-0.466 2.795-3.261-2.329-6.521 0-10.248 0.932-2.795 0.932 1.863 3.726 2.795 5.589 0.932 1.863 1.863 3.726 1.398 6.056l-5.124-5.59c-6.055 3.261-9.782 9.316-14.906 13.974-2.329 1.863-1.397 5.124-1.397 7.918-3.261 0-6.987-0.932-8.85 0.932-1.397 1.863-0.932 4.658-0.932 7.453-4.658-0.466-5.124-7.453-9.315-6.056-4.192 0.932-8.85 1.397-12.577 3.727 2.795 5.59-4.658 2.329-3.726 3.26-6.987-4.192-13.042-7.453-20.495-4.658-15.837-5.124-35.4-2.795-49.84-0.931 0-2.329 0.466-4.658-0.466-5.124-0.932 2.329-3.726 1.397-3.26 1.397-8.85-6.055-17.7-9.782-27.016-14.905-8.384 0.932-16.303-3.261-18.632-5.59-6.521-6.055-13.974-2.795-20.029-4.192-13.042-3.261-17.7-16.769-19.098-26.084-0.932-4.658-4.658-6.521-6.055-6.056-6.055-19.563-15.371-37.263-22.824-55.429-1.863-4.658-1.397-9.316-1.397-14.44 2.329 0.932 4.658 0.466 4.192-2.794-2.329-15.371-7.918-27.016-13.974-38.195 3.261-15.837 3.726-34.469 11.179-48.443 6.521-12.576 18.632-19.098 27.016-29.811 2.795-3.726 2.795-8.85 5.59-12.11 9.316-9.316 18.632-19.098 28.879-27.482 4.658-3.726 10.247 0 17.234-1.397 2.329-8.384 11.645-15.837 20.495-13.508 3.726 0.932 11.179-8.85 13.508-9.782 3.726-1.397 1.863 3.726 1.863 6.987 8.85-6.987 20.961-10.713 32.14-14.906" fill="#3d3839" fill-rule="nonzero" stroke="none" stroke-width="1" stroke-linecap="butt" stroke-linejoin="miter" stroke-miterlimit="10" stroke-dasharray="" stroke-dashoffset="0" font-family="none" font-weight="none" font-size="none" text-anchor="none" style="mix-blend-mode: normal" data-fill-palette-color="tertiary"></path></g><g transform="matrix(1,0,0,1,64,126.12241367938931)"><svg viewBox="0 0 192 107.75517264122138" height="107.75517264122138" width="192"><g><svg viewBox="0 0 192 107.75517264122138" height="107.75517264122138" width="192"><g><svg viewBox="0 0 192 107.75517264122138" height="107.75517264122138" width="192"><g transform="matrix(1,0,0,1,0,65.1292184427481)"><svg viewBox="0 0 192 42.62595419847328" height="42.62595419847328" width="192"><g id="textblocktransform"><svg viewBox="0 0 192 42.62595419847328" height="42.62595419847328" width="192" id="textblock"><g><svg viewBox="0 0 192 42.62595419847328" height="42.62595419847328" width="192"><g transform="matrix(1,0,0,1,0,0)"><svg width="192" viewBox="1.4500000476837158 -34.25 157.19000244140625 34.900001525878906" height="42.62595419847328" data-palette-color="#3d3839"><path d="M15.4 0.55Q11.3-12.15 9.45-16.5L9.45-16.5 9.05-16.5Q8.95-14.7 8.7-10.55 8.45-6.4 8.35-4.05L8.35-4.05Q8.35-3.4 8.68-3.1 9-2.8 9.7-2.8L9.7-2.8 11-2.8 11.25-2.6 10.85 0.15Q10.25 0.15 8.65 0.08 7.05 0 5.7 0L5.7 0Q4.65 0 3.28 0.13 1.9 0.25 1.45 0.3L1.45 0.3 1.7-2.55Q2.9-2.65 3.48-3.28 4.05-3.9 4.15-5.3L4.15-5.3Q4.5-7.95 5.13-13.85 5.75-19.75 5.75-20.5L5.75-20.5Q5.75-21.55 5.2-21.88 4.65-22.2 2.75-22.35L2.75-22.35 2.5-22.65 2.9-25.25Q3.55-25.2 5.18-25.13 6.8-25.05 8.3-25.05L8.3-25.05Q9.85-25.05 11.28-25.1 12.7-25.15 13.2-25.2L13.2-25.2Q14.6-20.25 16.03-15.83 17.45-11.4 17.9-10.15L17.9-10.15 18.3-10.15Q18.75-11.4 20.25-15.8 21.75-20.2 23.3-25.05L23.3-25.05Q23.95-25.1 24.53-25.08 25.1-25.05 25.55-25.05L25.55-25.05Q26.1-25 27.35-25L27.35-25Q28.35-25 28.85-25.05L28.85-25.05Q30.2-25.1 31.38-25.18 32.55-25.25 32.95-25.3L32.95-25.3 33.15-25.15 32.85-22.45Q31.15-22.35 30.55-21.93 29.95-21.5 29.95-20.4L29.95-20.4Q29.95-19 30.28-14.33 30.6-9.65 30.9-6.3L30.9-6.3Q31.15-4.25 31.55-3.53 31.95-2.8 32.9-2.8L32.9-2.8 34.05-2.85 34.25-2.6 33.9 0.1Q33.45 0.1 32.23 0.05 31 0 29.6 0L29.6 0Q28.15 0.05 26.18 0.13 24.2 0.2 23.25 0.3L23.25 0.3 23.55-2.55Q24.8-2.7 25.33-3.13 25.85-3.55 25.85-4.5L25.85-4.5Q25.85-5.45 25.55-10.15 25.25-14.85 25.15-16.5L25.15-16.5 24.75-16.5Q23.85-14.3 22.18-9.63 20.5-4.95 18.8 0.2L18.8 0.2 15.4 0.55ZM37.3 0.4L37.6-2.5Q39.3-2.7 39.9-3.43 40.5-4.15 40.5-5.9L40.5-5.9 40.55-20.15Q40.55-21.4 40.3-21.83 40.05-22.25 39.25-22.25L39.25-22.25 38.05-22.2 37.75-22.6 38.1-25.15Q38.9-25.15 41.17-25.1 43.45-25.05 46.05-25.05L46.05-25.05Q54.9-25.05 58.65-25.5L58.65-25.5 59-25.05Q58.85-24.4 58.52-22.23 58.2-20.05 58.05-17.75L58.05-17.75 53.9-17.5Q53.9-17.65 53.95-18.13 54-18.6 54-19.05L54-19.05Q54-20.15 53.65-20.6 53.3-21.05 52.3-21.23 51.3-21.4 49-21.4L49-21.4Q47.65-21.4 47.32-21.2 47-21 46.95-20.2L46.95-20.2 46.7-14.55 50.4-14.55Q51.3-14.55 52.95-14.68 54.6-14.8 55.15-14.85L55.15-14.85 55.55-14.4 54.95-10.8Q54.4-10.8 52.87-10.85 51.35-10.9 49.65-10.9L49.65-10.9Q48.3-10.9 46.55-10.65L46.55-10.65Q46.45-8.25 46.45-5.75L46.45-5.75Q46.45-4.65 46.6-4.2 46.75-3.75 47.25-3.58 47.75-3.4 48.95-3.4L48.95-3.4Q51.45-3.4 52.6-3.73 53.75-4.05 54.25-4.93 54.75-5.8 55.05-7.8L55.05-7.8 58.85-8.1 59.25-7.65Q59.1-7.05 58.72-4.85 58.35-2.65 58.1-0.2L58.1-0.2 57.65 0.25Q56.4 0.2 52.22 0.1 48.05 0 44.7 0L44.7 0Q42.35 0 40.15 0.18 37.95 0.35 37.3 0.4L37.3 0.4ZM98.8-18.15L99.95-15.95 99.95-15.65 95.9-11.55 94.95-11.25 91.4-11.6Q90.09-8.15 87.47-5.35 84.84-2.55 81.47-0.95 78.09 0.65 74.55 0.65L74.55 0.65Q70.9 0.65 68.15-0.88 65.4-2.4 63.9-5.15 62.4-7.9 62.4-11.5L62.4-11.5Q62.4-15.2 64.09-18.43 65.8-21.65 68.5-23.55 71.2-25.45 74.05-25.45L74.05-25.45Q76.15-25.45 77.4-24.43 78.65-23.4 78.65-21.85L78.65-21.85Q78.65-21.3 78.47-20.83 78.3-20.35 78.2-20.2L78.2-20.2 78.45-20Q82.5-23.35 84.77-26.6 87.05-29.85 87.9-33.7L87.9-33.7 88.5-34.25 90.05-34.25Q90.2-33.95 90.59-32.9 91-31.85 91.4-30.65 91.8-29.45 91.8-28.85L91.8-28.85Q91.8-28.1 90-25.9L90-25.9Q86.9-22.2 81.55-17.8 76.2-13.4 68.2-9L68.2-9Q69.09-6.65 71.25-5.38 73.4-4.1 76.55-4.1L76.55-4.1Q80.3-4.1 83.02-6.2 85.75-8.3 86.84-12.05L86.84-12.05 84.59-12.3Q84.09-12.3 83.37-11.8 82.65-11.3 82.07-10.78 81.5-10.25 81.34-10.1L81.34-10.1 81.05-10.1 79.75-12.35 79.75-12.6 84-16.7 84.8-16.95Q85.59-16.95 87.5-16.7 89.4-16.45 90-16.4L90-16.4Q94-15.9 94.75-15.9L94.75-15.9Q95.25-15.9 96.07-16.4 96.9-16.9 97.57-17.45 98.25-18 98.45-18.15L98.45-18.15 98.8-18.15ZM67.2-13.55Q67.2-12.7 67.3-11.8L67.3-11.8Q70-13.35 71.42-14.43 72.84-15.5 73.4-16.4 73.95-17.3 73.95-18.4L73.95-18.4Q73.95-19.35 73.47-19.83 73-20.3 72.09-20.3L72.09-20.3Q70.05-20.3 68.62-18.4 67.2-16.5 67.2-13.55L67.2-13.55ZM111.84 0.55Q107.74-12.15 105.89-16.5L105.89-16.5 105.49-16.5Q105.39-14.7 105.14-10.55 104.89-6.4 104.79-4.05L104.79-4.05Q104.79-3.4 105.12-3.1 105.44-2.8 106.14-2.8L106.14-2.8 107.44-2.8 107.69-2.6 107.29 0.15Q106.69 0.15 105.09 0.08 103.49 0 102.14 0L102.14 0Q101.09 0 99.72 0.13 98.34 0.25 97.89 0.3L97.89 0.3 98.14-2.55Q99.34-2.65 99.92-3.28 100.49-3.9 100.59-5.3L100.59-5.3Q100.94-7.95 101.57-13.85 102.19-19.75 102.19-20.5L102.19-20.5Q102.19-21.55 101.64-21.88 101.09-22.2 99.19-22.35L99.19-22.35 98.94-22.65 99.34-25.25Q99.99-25.2 101.62-25.13 103.24-25.05 104.74-25.05L104.74-25.05Q106.29-25.05 107.72-25.1 109.14-25.15 109.64-25.2L109.64-25.2Q111.04-20.25 112.47-15.83 113.89-11.4 114.34-10.15L114.34-10.15 114.74-10.15Q115.19-11.4 116.69-15.8 118.19-20.2 119.74-25.05L119.74-25.05Q120.39-25.1 120.97-25.08 121.54-25.05 121.99-25.05L121.99-25.05Q122.54-25 123.79-25L123.79-25Q124.79-25 125.29-25.05L125.29-25.05Q126.64-25.1 127.82-25.18 128.99-25.25 129.39-25.3L129.39-25.3 129.59-25.15 129.29-22.45Q127.59-22.35 126.99-21.93 126.39-21.5 126.39-20.4L126.39-20.4Q126.39-19 126.72-14.33 127.04-9.65 127.34-6.3L127.34-6.3Q127.59-4.25 127.99-3.53 128.39-2.8 129.34-2.8L129.34-2.8 130.49-2.85 130.69-2.6 130.34 0.1Q129.89 0.1 128.67 0.05 127.44 0 126.04 0L126.04 0Q124.59 0.05 122.62 0.13 120.64 0.2 119.69 0.3L119.69 0.3 119.99-2.55Q121.24-2.7 121.77-3.13 122.29-3.55 122.29-4.5L122.29-4.5Q122.29-5.45 121.99-10.15 121.69-14.85 121.59-16.5L121.59-16.5 121.19-16.5Q120.29-14.3 118.62-9.63 116.94-4.95 115.24 0.2L115.24 0.2 111.84 0.55ZM145.34 0.45Q140.44 0.45 138.06-1.6 135.69-3.65 135.69-7.9L135.69-7.9 135.69-20.15Q135.69-21.45 135.44-21.85 135.19-22.25 134.34-22.25L134.34-22.25 133.09-22.2 132.99-22.35 133.34-25.15Q133.94-25.15 135.72-25.1 137.49-25.05 139.54-25.05L139.54-25.05Q141.04-25.05 142.54-25.13 144.04-25.2 144.59-25.25L144.59-25.25 144.24-22.35Q143.04-22.25 142.56-21.8 142.09-21.35 141.99-20.35L141.99-20.35 141.74-9Q141.74-6.4 142.97-4.9 144.19-3.4 146.44-3.4L146.44-3.4Q151.09-3.4 151.09-8.05L151.09-8.05Q151.09-11 151.01-14.8 150.94-18.6 150.94-20.15L150.94-20.15Q150.94-21.4 150.69-21.83 150.44-22.25 149.69-22.25L149.69-22.25 148.39-22.2 148.29-22.35 148.69-25.15Q149.24-25.15 150.66-25.1 152.09-25.05 153.49-25.05L153.49-25.05Q154.89-25.05 156.51-25.13 158.14-25.2 158.64-25.25L158.64-25.25 158.39-22.4Q156.89-22.05 156.47-21.73 156.04-21.4 156.04-20.5L156.04-20.5 156.04-8.7Q156.04-4.25 153.29-1.9 150.54 0.45 145.34 0.45L145.34 0.45Z" opacity="1" transform="matrix(1,0,0,1,0,0)" fill="#3d3839" class="undefined-text-0" data-fill-palette-color="primary" id="text-0"></path></svg></g></svg></g></svg></g></svg></g><g transform="matrix(1,0,0,1,66.86720414065837,0)"><svg viewBox="0 0 58.26559171868327 58.90906870229008" height="58.90906870229008" width="58.26559171868327"><g><svg xmlns="http://www.w3.org/2000/svg" xmlns:xlink="http://www.w3.org/1999/xlink" version="1.1" x="0" y="0" viewBox="11.245999336242676 10.817999839782715 77.50801086425781 78.36399841308594" enable-background="new 0 0 100 100" xml:space="preserve" height="58.90906870229008" width="58.26559171868327" class="icon-icon-0" data-fill-palette-color="accent" id="icon-0"><g fill="#ffc604" data-fill-palette-color="accent"><rect x="25.512" y="25.512" width="48.977" height="48.977" fill="#ffc604" data-fill-palette-color="accent"></rect><rect x="28.25" y="17.97" width="4.979" height="4.979" fill="#ffc604" data-fill-palette-color="accent"></rect><rect x="29.76" y="10.845" width="1.96" height="6.039" fill="#ffc604" data-fill-palette-color="accent"></rect><rect x="36.375" y="17.957" width="4.979" height="4.979" fill="#ffc604" data-fill-palette-color="accent"></rect><rect x="37.885" y="10.831" width="1.96" height="6.039" fill="#ffc604" data-fill-palette-color="accent"></rect><rect x="44.125" y="17.957" width="4.979" height="4.979" fill="#ffc604" data-fill-palette-color="accent"></rect><rect x="45.635" y="10.831" width="1.96" height="6.039" fill="#ffc604" data-fill-palette-color="accent"></rect><rect x="51.5" y="17.943" width="4.979" height="4.979" fill="#ffc604" data-fill-palette-color="accent"></rect><rect x="53.01" y="10.818" width="1.961" height="6.039" fill="#ffc604" data-fill-palette-color="accent"></rect><rect x="58.875" y="17.957" width="4.979" height="4.979" fill="#ffc604" data-fill-palette-color="accent"></rect><rect x="60.385" y="10.831" width="1.961" height="6.039" fill="#ffc604" data-fill-palette-color="accent"></rect><rect x="66" y="17.957" width="4.979" height="4.979" fill="#ffc604" data-fill-palette-color="accent"></rect><rect x="67.51" y="10.831" width="1.961" height="6.039" fill="#ffc604" data-fill-palette-color="accent"></rect><rect x="28.25" y="77.051" width="4.979" height="4.979" fill="#ffc604" data-fill-palette-color="accent"></rect><rect x="29.76" y="83.117" width="1.96" height="6.039" fill="#ffc604" data-fill-palette-color="accent"></rect><rect x="36.375" y="77.064" width="4.979" height="4.979" fill="#ffc604" data-fill-palette-color="accent"></rect><rect x="37.885" y="83.13" width="1.96" height="6.039" fill="#ffc604" data-fill-palette-color="accent"></rect><rect x="36.375" y="77.064" width="4.979" height="4.979" fill="#ffc604" data-fill-palette-color="accent"></rect><rect x="37.885" y="83.13" width="1.96" height="6.039" fill="#ffc604" data-fill-palette-color="accent"></rect><rect x="44.125" y="77.064" width="4.979" height="4.979" fill="#ffc604" data-fill-palette-color="accent"></rect><rect x="45.635" y="83.13" width="1.96" height="6.039" fill="#ffc604" data-fill-palette-color="accent"></rect><rect x="51.5" y="77.078" width="4.979" height="4.979" fill="#ffc604" data-fill-palette-color="accent"></rect><rect x="53.01" y="83.143" width="1.961" height="6.039" fill="#ffc604" data-fill-palette-color="accent"></rect><rect x="58.875" y="77.064" width="4.979" height="4.979" fill="#ffc604" data-fill-palette-color="accent"></rect><rect x="60.385" y="83.13" width="1.961" height="6.039" fill="#ffc604" data-fill-palette-color="accent"></rect><rect x="66" y="77.064" width="4.979" height="4.979" fill="#ffc604" data-fill-palette-color="accent"></rect><rect x="67.51" y="83.13" width="1.961" height="6.039" fill="#ffc604" data-fill-palette-color="accent"></rect><rect x="76.623" y="66.639" width="4.98" height="4.979" fill="#ffc604" data-fill-palette-color="accent"></rect><rect x="82.689" y="68.148" width="6.039" height="1.959" fill="#ffc604" data-fill-palette-color="accent"></rect><rect x="76.637" y="58.515" width="4.979" height="4.978" fill="#ffc604" data-fill-palette-color="accent"></rect><rect x="82.703" y="60.023" width="6.039" height="1.959" fill="#ffc604" data-fill-palette-color="accent"></rect><rect x="76.637" y="50.765" width="4.979" height="4.979" fill="#ffc604" data-fill-palette-color="accent"></rect><rect x="82.703" y="52.273" width="6.039" height="1.96" fill="#ffc604" data-fill-palette-color="accent"></rect><rect x="76.65" y="43.39" width="4.979" height="4.979" fill="#ffc604" data-fill-palette-color="accent"></rect><rect x="82.715" y="44.898" width="6.039" height="1.96" fill="#ffc604" data-fill-palette-color="accent"></rect><rect x="76.637" y="36.015" width="4.979" height="4.979" fill="#ffc604" data-fill-palette-color="accent"></rect><rect x="82.703" y="37.523" width="6.039" height="1.96" fill="#ffc604" data-fill-palette-color="accent"></rect><rect x="76.637" y="28.89" width="4.979" height="4.979" fill="#ffc604" data-fill-palette-color="accent"></rect><rect x="82.703" y="30.398" width="6.039" height="1.96" fill="#ffc604" data-fill-palette-color="accent"></rect><rect x="18.397" y="66.639" width="4.979" height="4.979" fill="#ffc604" data-fill-palette-color="accent"></rect><rect x="11.272" y="68.148" width="6.039" height="1.959" fill="#ffc604" data-fill-palette-color="accent"></rect><rect x="18.384" y="58.515" width="4.979" height="4.978" fill="#ffc604" data-fill-palette-color="accent"></rect><rect x="11.258" y="60.023" width="6.039" height="1.959" fill="#ffc604" data-fill-palette-color="accent"></rect><rect x="18.384" y="50.765" width="4.979" height="4.979" fill="#ffc604" data-fill-palette-color="accent"></rect><rect x="11.258" y="52.273" width="6.039" height="1.96" fill="#ffc604" data-fill-palette-color="accent"></rect><rect x="18.371" y="43.39" width="4.979" height="4.979" fill="#ffc604" data-fill-palette-color="accent"></rect><rect x="11.246" y="44.898" width="6.039" height="1.96" fill="#ffc604" data-fill-palette-color="accent"></rect><rect x="18.384" y="36.015" width="4.979" height="4.979" fill="#ffc604" data-fill-palette-color="accent"></rect><rect x="11.258" y="37.523" width="6.039" height="1.96" fill="#ffc604" data-fill-palette-color="accent"></rect><rect x="18.384" y="28.89" width="4.979" height="4.979" fill="#ffc604" data-fill-palette-color="accent"></rect><rect x="11.258" y="30.398" width="6.039" height="1.96" fill="#ffc604" data-fill-palette-color="accent"></rect></g></svg></g></svg></g><g></g></svg></g></svg></g></svg></g></svg></g><defs></defs></svg><rect width="320" height="360" fill="none" stroke="none" visibility="hidden"></rect></g></svg></g></svg>